<svg width="25" height="25" viewBox="0 0 25 25" fill="none" xmlns="http://www.w3.org/2000/svg">
<path d="M24.5 12.5C24.5 19.1274 19.1274 24.5 12.5 24.5C5.87258 24.5 0.5 19.1274 0.5 12.5C0.5 5.87258 5.87258 0.5 12.5 0.5C19.1274 0.5 24.5 5.87258 24.5 12.5Z" fill="#5C7450" stroke="white"/>
<path d="M17.2071 14.2071C17.5976 13.8166 17.5976 13.1834 17.2071 12.7929L10.8431 6.42893C10.4526 6.03841 9.81946 6.03841 9.42893 6.42893C9.03841 6.81946 9.03841 7.45262 9.42893 7.84315L15.0858 13.5L9.42893 19.1569C9.03841 19.5474 9.03841 20.1805 9.42893 20.5711C9.81946 20.9616 10.4526 20.9616 10.8431 20.5711L17.2071 14.2071ZM15.5 14.5H16.5V12.5H15.5V14.5Z" fill="white"/>
</svg>
